<?xml version="1.0" encoding="utf-8"?>
<!-- Generator: Adobe Illustrator 14.0.0, SVG Export Plug-In . SVG Version: 6.00 Build 43363)  -->
<!DOCTYPE svg PUBLIC "-//W3C//DTD SVG 1.1//EN" "http://www.w3.org/Graphics/SVG/1.1/DTD/svg11.dtd">
<svg version="1.1" id="Layer_1" xmlns="http://www.w3.org/2000/svg" xmlns:xlink="http://www.w3.org/1999/xlink" x="0px" y="0px"
	 width="2600px" height="700px" viewBox="0 0 2600 700" enable-background="new 0 0 2600 700" xml:space="preserve">
<path fill="#02080D" d="M1957.278,91.229l-15.481,21.675c-0.656,25.335-1.084,163.419-1.084,163.419l-13.193,6.276v54.964h-5.847
	v-68.382l-11.68-7.144v-14.706h-7.151v-7.798l-14.934-4.327h-28.78l-5.613,4.772h-14.073l-5.187,3.236l-3.905-2.605h-12.321v-6.26
	h-15.359v5.184h-12.999v-6.704h-19.688v6.494h-4.758l-10.378,3.019v6.932h-5.796v43.436l-12.06-12.068c0,0,0-25.948,0-27.368
	c0-1.412,0.328-2.815-2.806-2.815c-3.143,0-2.488,2.504-2.488,2.504v27.898l-11.043,9.967l-4.77,10.377v14.496h-15.9V257.81h-6.487
	v-3.729l-16.076-10.21l-51.273-0.487l-21.746,14.597v2.765l-2.925,1.614v31.812h-14.773v2.27h-19.629v5.191h-3.731v4.06h-6.663
	v7.479l-2.277-1.629h-2.26l-2.924-5.521h-7.453v-8.446h-15.016v5.598l-1.716-1.698h-9.242l-2.11,2.117h-3.73v2.917h-5.848v4.378
	h-6.648v30.997l-2.117,3.899h-18.325v47.714l-24.354,2.589v-21.582V361.84h-4.696l-2.604-19.141l-1.453,19.47h-9.59l-0.798,16.552
	h-5.361l-2.428,13.632l-4.059,1.301v-65.073h-6.42v-18.26l-13.227-13.234v-9.083h-3.402v-5.833l-1.463-1.63l-0.8-13.637
	l-0.503,13.798l-0.966,0.976v6.159h-4.145v9.344l-13.385,13.386v11.185h-8.596l5.832,7.805l-6.487,6.48v52.426h-5.193v-3.892h-3.89
	v-31.493h-4.06v-30.822h-3.907v-31.486h-3.554V261.4h-22.722v29.041h-2.445v34.569c0,0-1.942-1.959-5.673-4.546
	s-2.765-2.446-1.303-6.01c1.472-3.569-6.169-0.974-8.108,0.162c-1.941,1.144-6.504,3.57-6.504,3.57v-2.914v-14.614
	c0,0,4.891,0,8.764,0c3.908,0,3.59-5.019,3.59-5.019l-9.581-9.418c0,0,5.521-10.068,9.722-9.739c4.235,0.328,3.849-5.79,3.849-5.79
	s-3.671-1.075-4.766-1.075c-1.064,0-2.578-2.815-6.485-4.774c-3.892-1.939-9.295,3.261-9.295,3.261s-17.973,0-19.687,0
	c-1.75,0-4.118-3.261-6.277-3.031c-2.176,0.216-3.26,2.605-3.26,2.605s-8.209-0.675-8.209,1.729c0,2.37-0.656,5.404-3.043,5.404
	c-2.359,0-3.664,3.889-4.764,3.033c-1.067-0.875-1.94-0.648-3.672,0.855c-1.731,1.514-5.403,3.899-5.403,3.899l-0.873-5.2h-8.867
	l-2.386,9.739l-0.429-9.355h-9.723l-0.503,10.707l-9.093,6.337l2.447,9.251v49.652h-14.765c0,0,0.152,0,0-5.519
	c-0.177-5.513-2.604-6-5.858-5.673c-3.224,0.327-2.1,9.578-2.1,9.578h-7.461l-16.881,8.747v42.696l-4.866,3.245
	c0,0-4.387-0.816-5.362-4.22c-0.966-3.41,1.463-12.822,1.79-20.134c0.328-7.302-0.327-68.81-0.487-83.736
	c-0.168-14.932-2.217-55.5-2.217-55.5l-44.134-17.303V115.548l-7.377-9.949h-72.476v63.838h-8.664l-4.335-4.337l-14.597,2.809
	v56.803l-7.462,7.462v-10.597c0,0-3.461,0-4.117,0c-0.647,0-4.528-1.959-9.51-2.386c-4.976-0.429-20.565-0.648-24.235,1.301
	c-3.673,1.959-2.604,10.394-2.604,10.394h-14.48V94.776L926.32,64.493c0,0,1.504,0,3.236-2.176c1.73-2.159-2.589-4.976-2.589-4.976
	V46.026h-28.134v16.291l-33.108,27.485v86.341c0,0-6.923,0.21-9.309-0.226c-2.379-0.429-10.168-3.237-11.252,3.243
	c-1.075,6.504-6.488,7.581-6.488,7.581l4.758,4.771h-4.539v109.475h-3.899v-4.545h-7.789v7.797l-9.521,17.1l-6.495,1.068v4.99
	l-21.419,3.235v19.698h-4.646v-7.033l-3.143-3.144l-4.757-22.066v-78.333l-13.2-5.623v-9.319h-6.059v-4.964h-20.124v-15.151h-20.774
	v-4.546h-4.754v4.976l-16.017-0.43h-65.997v9.521l-43.932,6.932v30.073h-6.706l-4.655,6.918v77.147l-7.462,7.47v16.655h-12.763
	l-9.74-14.714v-10.596h-28.999v-25.966l-9.083-9.091v-84.401l-8.875-6.259h-11.242c0,0,0,0-1.521-3.689
	c-1.514-3.673-5.839-3.244-5.411-3.891c0.437-0.655,0-6.496,0-6.496s-0.647-1.511,1.941-4.545c2.605-3.024,2.386-7.789,2.386-7.789
	s-0.436,1.73-2.386,2.605c-1.941,0.855-3.454-2.605-6.487-3.689c-3.025-1.076-2.16,1.301-6.706,0.655
	c-4.546-0.655-5.63,2.589-5.63,2.589s-1.731,0-4.32,0c-2.595,0-2.385,2.175-2.385,2.175s-3.462,0.655-5.833,3.899
	c-2.385,3.234-3.905,0.429-7.796,1.503c-3.9,1.085,4.974,8.874,4.974,8.874s2.387,0.218-3.462,1.504
	c-5.832,1.301-7.353,6.294-7.353,6.294H418.46v26.175l-13.193-0.43v26.394h-18.402V194.31v-23.796c0,0-15.361,0-54.738,0.638
	c-39.384,0.656-45.231,7.36-45.231,7.36v21.21h3.905v70.115l-4.117-0.655v-11.69l-56.696-4.326c0,0,0.438-54.318,0-54.965
	c-0.428-0.638-12.982-5.831-40.896-8.865c-27.914-3.024-49.543-3.024-49.543-3.024s1.075,1.939,0,1.939
	c-1.093,0-6.934,0.875-6.934,0.875V265.5c0,0-3.89-0.211-8.864,0c-4.984,0.219-4.118,2.379-4.118,2.379v181.765h-14.706V252.962
	c0,0-1.73-1.74-5.629-1.74c-3.9,0-14.285-0.436-14.285-0.436l-25.527-1.74H35.251v3.471H23.134v229.369h-26.84L-5,700h2606.987
	V324.792c0,0-8.881-11.908-11.688-16.023c-2.816-4.103-6.935-4.53-8.664-4.53c-1.731,0-13.64-1.077-13.64-1.077
	s-3.461-2.175-5.175-7.804c-1.747-5.623-12.285-6.051-12.285-6.051V251.82c0,0,0.646-5.688,0.646-11.696
	c0-5.993,1.958-3.562-8.924-5.831c-10.882-2.279-14.613-0.162-17.369,0.326c-2.756,0.487-8.765-0.813-12.016-1.788
	c-3.227-0.985-16.554-0.817-16.554,1.462c0,2.27-0.472,8.764-0.472,8.764s-1.799-0.487-5.2,0c-3.422,0.487-6.968,6.646-9.899,7.302
	c-2.915,0.647-12.663,7.294-12.663,7.294l-22.066-1.771c0,0,0.807-2.918,1.622-5.361c0.806-2.431-1.304-4.707-3.58-3.893
	c-2.261,0.807-11.95,5.463-11.95,5.463v-50.856l-8.864,0.429v-20.116l-37.218,1.73v-3.034l-29.872,1.304v6.049l-10.604,1.304v3.47
	l-12.31,1.284v4.119l-32.688,4.764V134.38l-14.923-14.939c0,0,0-3.236-0.446-5.404c-0.428-2.175-6.486-4.109-7.133-5.412
	c-0.655-1.302-3.462-4.101-6.059-5.201c-2.589-1.075-9.521-3.89-10.387-6.261c-0.874-2.387,1.949-9.091,1.949-11.696
	c0-2.588-4.545-13.631-4.545-13.631s1.722,1.094,3.897-1.722c2.177-2.823-1.302-3.682-1.302-5.622c0-1.959-3.47-1.304-3.47-1.304
	s-1.287-29.863-2.59-28.352c-1.303,1.513-1.715,26.823-4.117,27.05c-2.369,0.218-1.303,4.545-1.303,4.545s-1.513,2.379,0,4.318
	c1.513,1.959,3.705,0.875,3.705,0.875s-2.192,6.488-3.705,10.597c-1.513,4.117,0.655,8.873,2.403,12.335
	c1.714,3.462-0.891,3.243-2.604,5.848c-1.74,2.588-8.117,3.563-8.117,3.563s-7.907,8.337-10.714,10.722
	c-2.814,2.37-2.168,4.319-2.168,4.319l-0.43,4.974c0,0-4.544,4.548-10.612,9.093c-6.05,4.544-5.621,8.008-5.621,8.008
	s0.874,19.041,0,21.2c-0.865,2.16,2.159,5.403,2.159,5.403v53.233c0,0-3.024-5.623-3.672-7.992
	c-0.654-2.386-4.117-4.545-4.117-4.545l-6.916-15.371c0,0-40.897-1.075-47.594,1.514c-6.713,2.589-4.983,11.897-6.925,12.982
	c-1.958,1.084-7.579,6.706-7.579,6.706l-3.033,23.806l-3.454,3.031v11.908c0,0-10.821-8.015-13.647-8.015
	c-2.813,0-8.856,2.165-8.856,2.165s-4.981-3.469-7.798-2.814c-2.815,0.649-9.092,2.16-21.418,2.814
	c-12.336,0.649-18.185,5.85-18.185,1.934c0-3.889,0.654-151.246,0.654-159.035C2061.884,90.011,1957.278,91.229,1957.278,91.229z"/>
</svg>
